<svg xmlns="http://www.w3.org/2000/svg" xmlns:xlink="http://www.w3.org/1999/xlink" width="194.716" height="224.999" viewBox="0 0 194.716 224.999">
   <defs>
      <clipPath id="clip-path">
         <rect width="194.716" height="224.999" fill="none"/>
      </clipPath>
   </defs>
   <g transform="translate(0 0)" clip-path="url(#clip-path)">
      <path d="M40.2,47.641c-1.4,0-3.923,5.806-3.923,13.965,0,10.165,7.353,10.019,7.353,12.249,0,.171-1.668,7.842-11.271,7.842-1.788,0-.809,1.222-6.37,1.222-4.877,0-7.522,7.278-9.8,13.475-5.878,15.925-2.913,3.845-7.842,14.947C5.8,117.071,7.32,117.707,6.634,120.4c0,0-6.367,15.9-6.367,22.049,0,5.88,2.2,3.233,2.2,16.9v3.188c0,1.125.933,1.957,1.964,3.671l2.692,6.126c2.083,3.087,6.983,4.875,7.842,5.635,1.272,1.152,4.877,6.983,5.632,7.84,3.333,3.677,7.3,1.86,10.782,11.271.658,1.811,10.777,15.725,10.777,38.707,0,2.205-1.125,4.458-1.226,7.1-.12,3.775,0,2.692,0,9.556,0,4.068-1.714,5.533-1.714,10.045,0,5.486,3.774,6.368,7.107,6.368h1.959c2.791,0,4.165-2.769,4.165-6.126,0-5.779.047-8.058,0-8.573-.124-1.028-1.716-3.357-1.716-5.635v-1.959c0-.809,1.716-5.711,1.716-7.837,0,0-.737-5.1-.737-5.637,0-2.4-.318-.273,0-3.184,0,0,2.453-6.886,2.453-9.066,0-3.236-3.678-4.189-3.678-10.045,0,0-1.957-3.847-1.957-5.635a4.953,4.953,0,0,1,1.222-2.205c.271.171,6.151,9.553,7.6,9.553,3.208,0,2.2-6.122,5.632-6.122,1.3,0,2.453,10.584,2.453,11.267,0,1.324-.737,3.283-.737,5.389,0,3.849,1.935,1.6,3.181,7.84v20.333c1.351,2.918-1.957,3.729-1.957,9.8,0,4.361,6.467,6.616,9.556,6.616.437,0,5.145-2.4,5.145-6.857,0-1.939-1.716-2.992-1.716-3.923v-4.9c0-7.159-1.959-12.124-1.959-16.169v-17.15l1.959-16.9,6.859-14.455c1.324-3.037,4.482.171,11.515-11.761,0,0,10.045-7.666,10.045-28.664,0-15.481-8.575-16.388-8.575-21.558,0-.172-.733-.244-.733-4.408,0-1.03-2.771-2.744-4.41-19.357-.787-7.838-13.722-13.35-13.722-18.374,0-.415,1.788-4.163,2.94-4.163,6.834,0,6.566-.1,8.088,0,7.468.489,11.021-10.463,11.021-11.515,0-5.072-10.043-5.88-10.043-5.88-2.255,0-4.582,1.958-5.389,1.958H80.376c-4.507,0-5.657-9.38-7.594-10.779-.1-.046-6.688-3.674-12-3.674-2.032,0-2.081-.736-4.654-.736a3.389,3.389,0,0,0-3.432,2.94,23.583,23.583,0,0,1,.737,4.167c0,.539-1.863,5.142-2.943,5.142-3.037,0-6.369-12.983-10.286-12.983" transform="translate(87.369 -43.869)" fill="#fff"/>
      <path d="M0,127.36c.32-.489,3.283-.552,5.317-6.16.638.464.489,1.294.489,5.63,0,.345-2.449,5.88-2.449,5.88v1.962l1.714,8.82a32.006,32.006,0,0,1-1.959,10.534v1.957c0,2.16,1.959,4.169,2.451,4.169,1.982,0,3.43-8.527,3.43-9.555a24.171,24.171,0,0,1,.737-6.859c0-3.285,4.162-13.72,4.162-14.945,0-2.379-1.472-4.73-1.472-6.126,0-.855.541-1.423,1.472-3.184,5.831,5.093,1.766,4.775,4.656,8.083-.859,1-2.207,1.885-2.207,3.186,0,3.772-.1,5.168,0,7.838,0,.444.271.758.735,1.714a4.043,4.043,0,0,0-1.714,3.434,4.279,4.279,0,0,0,.735,2.694c-1.592,1.053-1.47,1.053-1.47,1.959,0,2.377,2.28,4.654,3.186,4.654,4.07,0,5-6.859,9.553-6.859,1.1,0,1.962.44,1.962,2.205,0,6.762,7.351,12,8.081,12,3.7,0,2.061-5.88,4.658-5.88,2.277,0,.735,1.957.735,1.957v2.942c0,1.594,7,11.026,8.575,11.026,2.354,0,4.85-4.9,7.346-4.9,1.669,0,2.036,5.147,4.658,5.147.246,0,6.613-6.2,6.613-7.6a19.568,19.568,0,0,0-1.224-4.9l7.844-5.88v2.2c-1.35,2.719-2.381,2.843-2.453,3.43-.1.783,0,2.771,0,4.658,0,3.111,4.852,6.367,4.9,6.367,1.154,0,1.47-1.249,1.47-1.714v-4.167L83.96,150.6c.807-1.224,3.186.072,3.186-4.658v-7.1c-1.569-1.369-3.675-5.756-3.186-6.611v-3.186c0-2.771-2.205-3.847-2.205-5.389v-2.7a2.477,2.477,0,0,1-.983-1.712V116.3c0-1.272-2.692-5.143-2.692-6.121,0-1.5,1.716-3.8,1.716-6.126,0-.194.022-6.442,0-7.1A13.811,13.811,0,0,0,78.325,94c3.082.761,6.369,8.5,6.369,9.311,0,.025-2.7,5.024-2.7,7.1,0,1.52,2.453,4.656,2.453,4.9,0,7.08,2.2,6.151,2.2,7.84,0,4.092.74,4.41.74,4.41,0,6.834,2.891,7.815,3.181,8.821.174.611-.39,2.18-.246,2.694.958,3.186,4.412,3.308,4.412,5.143v2.208c0,7.718,1.227,8.279,1.227,9.064,0,4.455-3.188,8.674-3.188,12.494a42.683,42.683,0,0,0,.981,6.124S103.8,166.449,103.8,145.45c0-15.481-8.575-16.388-8.575-21.558,0-.172-.733-.244-.733-4.408,0-1.03-2.771-2.744-4.41-19.357C89.3,92.29,76.364,86.777,76.364,81.754c0-.415,1.788-4.163,2.94-4.163,6.834,0,6.566-.1,8.088,0,7.468.489,11.021-10.463,11.021-11.515,0-5.072-10.043-5.88-10.043-5.88-2.255,0-4.581,1.958-5.389,1.958H76.853c-4.507,0-5.657-9.38-7.594-10.779-4.679,2.328-.586,7.745-7.594,19.845-4.7,8.133-8.573,14.381-8.573,17.394,0,9.013,5.63,12.053,5.63,13.23v3.432c-2.273-1.227-.78-5.148-9.062-5.148-2.205,0-4.165,3.186-6.126,3.186-.586,0-.978-.64-.978-1.224,0-.124,7.6-14.137,7.6-21.561,0-1.027.1-1.393,0-3.674-.3-5.83-3.188-14.65-3.188-17.641-3.037,0-6.369-12.983-10.286-12.983-1.4,0-3.923,5.806-3.923,13.965,0,10.165,7.353,10.019,7.353,12.249,0,.171-1.668,7.842-11.271,7.842-1.788,0-.809,1.222-6.37,1.222-4.877,0-7.522,7.278-9.8,13.475-5.878,15.925-2.913,3.845-7.842,14.947C2.28,115.661,3.8,116.3,3.112,118.993c0,0-1.551,3.752-3.112,8.367" transform="translate(90.913 -42.57)" fill="#1a1818"/>
      <path d="M883.114,696.011c-1.075.392-7.84,2.23-7.84,5.635v2.94c0,3.6-2.7,5.635-2.7,6.126v3.916h.981a6.834,6.834,0,0,0,5.145-6.611c0-4.117,3.675-3.578,3.675-5.391v-2.7c0-3.578,1.468-1.349,1.468-2.693a6.085,6.085,0,0,0-.733-1.225" transform="translate(-758.221 -640.902)" fill="#fff"/>
      <path d="M160.84,1460.292c-2.672,0-1.445,4.259-2.94,6.611-.052.1-3.186,5.66-3.186,7.109,0,1.224,1.346,3.919,2.94,3.919,3.651,0,7.348-12.007,7.348-12.007,0-4.237-1.544-5.632-4.162-5.632" transform="translate(17.464 -1344.668)" fill="#1a1818"/>
      <path d="M991.253,97.874a4.681,4.681,0,0,1-2.071,2.329,2.342,2.342,0,0,1-1.755-.075,6.2,6.2,0,0,1-7.026,1.84q-2.377-.824-4.815-1.435a5.108,5.108,0,0,0-2.272,2.225,12.58,12.58,0,0,0-1.519,3.679c-.847,3.334-.493,6.828-.2,10.212a.547.547,0,0,1,.013.226.617.617,0,0,1-.408.588c-1.738,1.711-4.9,1.821-7.143,1.529-2.663-.346-6.35-1.843-7.127-4.692a.525.525,0,0,1-.057-.444.5.5,0,0,1,.253-.354,19.634,19.634,0,0,0,4.344-7.3,17.921,17.921,0,0,0,.763-4.257c.021-.318.067-.7.088-1.1a4.486,4.486,0,0,1-.11-1.344,1.21,1.21,0,0,0-1.054-.915.67.67,0,0,1-.23-.075,110.283,110.283,0,0,0-20.908,1.375q-2.269.35-4.523.793-.487.3-.99.577a11.521,11.521,0,0,1-6.2,1.567,7.236,7.236,0,0,1-2.736-.743A8.866,8.866,0,0,1,921.6,99.6c-4.084-4.295-4.458-11.127-3.812-16.678a55.15,55.15,0,0,1,6.063-18.687v0a30.43,30.43,0,0,1,5.869-9.432,26.8,26.8,0,0,1,8.112-6.318,12.392,12.392,0,0,1,7.685-1.229,8.18,8.18,0,0,1,5.095,3.5c.136.2.263.4.386.61.146.182.287.371.42.564a12.494,12.494,0,0,1,1.633,3.57c.7,1.14,1.443,2.253,2.215,3.346a83.869,83.869,0,0,0,10.043,11.679q1.2,1.169,2.446,2.292a.714.714,0,0,1,.175.093,4.5,4.5,0,0,1,.886.849,91.715,91.715,0,0,0,17.91,12.235.7.7,0,0,1,.187.14,6.727,6.727,0,0,1,3.584,5.179,8.531,8.531,0,0,1,.038,1.272c.614.543,1.305,1.035,1.435,1.908a6.065,6.065,0,0,1-.719,3.382m-1.518.066c-.115-.258-.213-.544-.336-.813q-.066.148-.135.295a2.9,2.9,0,0,1,.387.656c.029-.046.057-.092.085-.138m-.391.554a4.277,4.277,0,0,0-.229-.474c-.026-.045-.053-.093-.083-.142q-.054.1-.11.2a1.806,1.806,0,0,0,.23.615,2.41,2.41,0,0,0,.191-.2m1.335-3.043c-.046-.066-.093-.131-.141-.2a4.023,4.023,0,0,0-.34-.427q-.045.178-.095.354a5.961,5.961,0,0,0,.5.709,4.257,4.257,0,0,0,.078-.44m-.231.975c-.147-.25-.335-.475-.507-.71-.011.034-.023.067-.034.1.156.269.314.536.471.8q.037-.1.07-.2m-.137-2.084a2.173,2.173,0,0,1,.367.355,1.245,1.245,0,0,0-.329-.544c-.012.063-.025.126-.038.189m-.594,2.011c-.033.088-.068.175-.1.262a6.816,6.816,0,0,1,.387.839l.053-.1c.039-.076.076-.154.113-.232-.151-.254-.3-.509-.45-.765m-1.094,2.231-.05.078a2.387,2.387,0,0,1,.119.333,1.245,1.245,0,0,0,.115-.053c-.066-.118-.13-.237-.183-.359m-24.608,2.7a.77.77,0,0,0,.46.062c-.308-.486-.613-.975-.928-1.457.008.1.013.2.016.3s0,.194,0,.291a1.177,1.177,0,0,0,.447.806m8.181.066c-.262-.45-.581-.869-.872-1.306,0-.006-.007-.013-.01-.019l-.176-.037c.315.472.621.949.922,1.43.046-.021.092-.043.137-.068m.842-.821-.094-.037,0,.006.057.079.033-.048m-.314.4c-.056-.077-.112-.154-.167-.23-.1-.145-.229-.292-.337-.445-.092-.027-.184-.052-.277-.076.211.3.421.6.608.919.06-.052.117-.108.172-.167m-2.138-.98a.235.235,0,0,1-.032-.072c-.122-.021-.244-.04-.365-.059a10.643,10.643,0,0,1,1.036,1.81,2.819,2.819,0,0,0,.413-.065c-.341-.544-.688-1.084-1.051-1.614m-1.024-.218q-.246-.031-.491-.059c.354.607.6,1.268.914,1.9a7.488,7.488,0,0,0,.762.071,8.72,8.72,0,0,0-1.185-1.909m-1.042-.119q-.382-.039-.76-.074c.41.63.842,1.247,1.239,1.885.156.021.315.045.476.07a12.842,12.842,0,0,0-.955-1.881m-1.309-.125q-.294-.027-.589-.051c.42.612.812,1.244,1.192,1.883q.32.021.64.047c-.406-.631-.842-1.244-1.243-1.879m-1.151-.093q-.467-.033-.935-.06c.434.622.794,1.292,1.208,1.926.319,0,.638.013.957.029-.389-.645-.793-1.281-1.23-1.895m-1.5-.089-.223-.011c-.228-.011-.456-.018-.684-.026.448.664.868,1.347,1.3,2.023.288-.02.576-.028.865-.03-.41-.657-.785-1.338-1.256-1.955m-2.221,10.631c-.162-.358-.336-.711-.511-1.063q-.123.264-.253.524c.26.452.443.952.721,1.4.149.237-.2.5-.348.263-.237-.378-.406-.8-.612-1.2q-.142.264-.291.525c.231.394.468.786.706,1.176.146.238-.2.5-.349.262q-.307-.5-.608-1.01-.133.219-.272.434c.2.324.378.656.559.989.134.247-.272.408-.4.164s-.276-.5-.421-.75q-.13.194-.265.386a6.771,6.771,0,0,1,.413,1.005c.123.254-.282.415-.4.164-.108-.224-.156-.545-.282-.788-.07.095-.143.188-.214.282a5.721,5.721,0,0,1,.316.774c.081.267-.323.433-.4.164a4.554,4.554,0,0,0-.213-.551c-.091.115-.183.229-.276.342a2.182,2.182,0,0,1,.134.464.218.218,0,0,1-.433.051,1.024,1.024,0,0,0-.029-.131q-.172.2-.349.392a4.623,4.623,0,0,0,2.366,2.28,11.372,11.372,0,0,0,3.639,1.214,10.963,10.963,0,0,0,3.48-.081,4.86,4.86,0,0,0,2.538-1.075c-.318-3.685-.615-7.439.427-11.04a15.892,15.892,0,0,1,1-2.6,17.039,17.039,0,0,1-3.84-.273,20.235,20.235,0,0,0-2.829-.03c.03.017.06.034.091.049.254.119.081.52-.175.4a3.351,3.351,0,0,1-.622-.4,1.994,1.994,0,0,1-.3-.018c.315.332.674.633.971.976.184.213-.166.474-.349.262-.359-.416-.809-.768-1.164-1.192-.015.155-.032.309-.05.464a6.044,6.044,0,0,1,1.193,1.19c.166.227-.182.49-.348.262a5.353,5.353,0,0,0-.91-.946c-.012.085-.024.17-.038.256.139.141.264.333.363.446.259.3.507.613.789.887.2.194-.069.538-.27.342-.243-.236-.461-.5-.684-.756l-.3-.34c-.018.1-.036.2-.055.294a11.943,11.943,0,0,1,1.07,1.547c.131.249-.275.411-.4.164a8.007,8.007,0,0,0-.787-1.15l0,.009c-.017.071-.036.141-.054.212.335.515.665,1.033.977,1.563.141.24-.206.5-.349.262-.25-.424-.512-.841-.779-1.254-.042.151-.086.3-.132.451a8.952,8.952,0,0,1,.874,1.523c.135.247-.271.408-.4.164-.213-.389-.381-.823-.633-1.193-.025.072-.049.145-.074.217a.221.221,0,0,1,.025.055,9.33,9.33,0,0,0,.786,1.677c.132.249-.274.41-.4.164-.223-.42-.462-.834-.642-1.273-.06.15-.122.3-.185.447.232.469.469.936.684,1.414.116.257-.289.419-.4.164M932.229,55.655a51.855,51.855,0,0,0-6.345,9.631c-.026.069-.053.137-.079.206a.2.2,0,0,1-.076.1,67.094,67.094,0,0,0-3.188,7.338c-2.279,6.216-3.828,13.234-2.519,19.838a16.344,16.344,0,0,0,2,5.274,7.207,7.207,0,0,0,6.174,3.014,10.089,10.089,0,0,0,3.268-.771.628.628,0,0,1,.2-.091l.039-.01a17.436,17.436,0,0,0,2.885-1.613,29.93,29.93,0,0,0,6.483-6.261,46.32,46.32,0,0,0,4.4-6.7l-8.652-4.721-4.353-2.375a3.89,3.89,0,0,1-.37-.233.185.185,0,0,1-.209-.154,4.1,4.1,0,0,1-.522-.5.7.7,0,0,1-.259-.325,4.949,4.949,0,0,1-.9-3.2,4.386,4.386,0,0,1,4.054-4.052.632.632,0,0,1,.326-.02,3.358,3.358,0,0,1,1.652.311l2.185.74,11.411,3.861c.225-.767.436-1.536.629-2.307,1.434-5.745,2.32-12.368.482-18.129l-.021-.061a.655.655,0,0,1-.07-.209,9.063,9.063,0,0,0-3.55-4.906c-.112-.071-.226-.136-.341-.2a10.31,10.31,0,0,0-5.346.184,20.816,20.816,0,0,0-8.405,5.227q-.485.457-.95.937a.192.192,0,0,1-.045.176m3.372,17.6a7.273,7.273,0,0,0,1.527-.756c.164-.11.332-.22.505-.318l-.144-.049a5.03,5.03,0,0,0-1.125.575c-.253.151-.5.313-.745.477-.006.024-.013.047-.019.071m.163-1.469c.083-.052.165-.1.248-.154l-.28-.095c.014.082.025.165.032.249m10.078,12.534.243.132c.113-.221.222-.443.332-.665a7.611,7.611,0,0,0-.574.533m-5.2-35.517a20.552,20.552,0,0,0-8.306,5.171c-.263.248-.52.5-.774.76a.64.64,0,0,1-.141.275,51.45,51.45,0,0,0-6.291,9.545c-.025.065-.051.131-.076.2a.65.65,0,0,1-.139.225,66.862,66.862,0,0,0-3.126,7.213c-2.255,6.148-3.78,13.082-2.486,19.612.082.41.18.826.3,1.243a29.638,29.638,0,0,1-.223-9.148A54.821,54.821,0,0,1,925.4,65.32v0a30.1,30.1,0,0,1,5.812-9.336,26.25,26.25,0,0,1,7.934-6.184,13.137,13.137,0,0,1,5.409-1.379,10.817,10.817,0,0,0-3.922.388M955.654,61.59c-.646-.853-1.289-1.72-1.909-2.606a35.705,35.705,0,0,1-.129,8.683,54.961,54.961,0,0,1-6.8,20.268A38.6,38.6,0,0,1,938,98.894q.649-.109,1.3-.214a113.812,113.812,0,0,1,18.128-1.468l.469,0a.606.606,0,0,1,.311-.1,7.382,7.382,0,0,0,4.635-2.536,21.014,21.014,0,0,0,4.255-6.638,23.417,23.417,0,0,0,1.887-8.306,8,8,0,0,0-1.139-4.994A88.219,88.219,0,0,1,955.654,61.59m14.367,14.9a13.3,13.3,0,0,1,.265,2.52,23.736,23.736,0,0,1-1.8,9,22.383,22.383,0,0,1-4.617,7.389,12.855,12.855,0,0,1-2.289,1.912,73.8,73.8,0,0,1,13.6,1.8,23.535,23.535,0,0,0,3.787-6.794,19,19,0,0,0,1.389-8.448,93.477,93.477,0,0,1-10.333-7.377M986.337,87.3a.708.708,0,0,1-.163-.124Q983.916,86,981.722,84.7a21.428,21.428,0,0,1-1.367,7.606,24.818,24.818,0,0,1-3.781,7.153q2.161.562,4.279,1.29a.769.769,0,0,1,.073.025c2.306.911,4.284-.083,5.714-1.721a.544.544,0,0,1,.229-.273,10.445,10.445,0,0,0,1.308-2.123,10.816,10.816,0,0,0,1.049-4.7,5.354,5.354,0,0,0-2.89-4.648" transform="translate(-869.945 -43.339)" fill="#050605"/>
      <path d="M1923.279,8.145c-4.936-3.151-10.7-4.634-16.057-6.889a.655.655,0,0,1,.525-1.2c5.469,2.3,11.3,3.842,16.343,7.062.712.454-.107,1.476-.811,1.026" transform="translate(-1880.629 0)" fill="#050605"/>
      <path d="M1814.929,141.748c-6.087-2.513-12.4-4.41-18.649-6.469-.8-.264-.272-1.461.524-1.2,6.248,2.059,12.562,3.956,18.649,6.469a.655.655,0,0,1-.525,1.2" transform="translate(-1763.317 -123.429)" fill="#050605"/>
      <path d="M2186.3,235.567c6.775,1.243,13.49,2.975,20.4,3.327.842.043.637,1.336-.2,1.294-6.906-.352-13.62-2.084-20.4-3.327-.828-.152-.634-1.446.2-1.294" transform="translate(-2185.572 -216.904)" fill="#050605"/>
      <path d="M2153.128,79.791c4.152,1.351,8.354,2.531,12.55,3.73.8.228.613,1.525-.2,1.293-4.306-1.23-8.618-2.439-12.877-3.825-.8-.261-.272-1.458.524-1.2" transform="translate(-2141.884 -73.44)" fill="#050605"/>
      <path d="M1845.414,343.818q17.844,1.094,35.68,2.33c.842.058.639,1.351-.2,1.294q-17.836-1.235-35.681-2.33c-.841-.052-.638-1.345.2-1.294" transform="translate(-1832.977 -316.593)" fill="#050605"/>
      <path d="M1912,475.493c5.743-.4,11.477-.947,17.229-1.2.838-.038,1,1.262.152,1.3-5.752.258-11.486.8-17.229,1.2-.839.059-.995-1.24-.152-1.3" transform="translate(-1886.576 -436.734)" fill="#050605"/>
      <path d="M1951.895,568.707c.8-.274,1.289.938.492,1.213a77.153,77.153,0,0,1-7.978,2c-.822.188-.965-1.113-.152-1.3a73.82,73.82,0,0,0,7.638-1.91" transform="translate(-1911.977 -523.64)" fill="#050605"/>
      <path d="M2113.746,439.087q5.76-.557,11.548-.687c.836-.018,1,1.281.152,1.3q-5.786.125-11.548.687a.655.655,0,0,1-.152-1.3" transform="translate(-2098.608 -403.688)" fill="#050605"/>
      <path d="M1753.988,21.443q3.567,2.358,6.952,4.972a.654.654,0,0,1-.811,1.027q-3.383-2.616-6.952-4.972c-.7-.466.112-1.489.811-1.026" transform="translate(-1705.267 -19.637)" fill="#050605"/>
      <path d="M1903.768,204.9c8.419,1.511,16.729,3.563,25.127,5.18.825.159.632,1.453-.2,1.293-8.4-1.617-16.708-3.669-25.127-5.18a.655.655,0,0,1,.2-1.294" transform="translate(-1885.389 -188.662)" fill="#050605"/>
      <path d="M1223.718,201.94c-.646-.853-1.289-1.721-1.91-2.606a35.724,35.724,0,0,1-.129,8.683,54.961,54.961,0,0,1-6.8,20.268,38.6,38.6,0,0,1-8.813,10.958q.649-.109,1.3-.214a113.811,113.811,0,0,1,18.128-1.468l.469,0a.6.6,0,0,1,.311-.1,7.382,7.382,0,0,0,4.635-2.536,21.007,21.007,0,0,0,4.255-6.638,23.42,23.42,0,0,0,1.887-8.306,8,8,0,0,0-1.139-4.994,88.226,88.226,0,0,1-12.191-13.054" transform="translate(-1137.835 -183.551)" fill="#fff"/>
      <path d="M1432.02,114.884c.234,0,.474-.011.713-.031a11.176,11.176,0,0,0,3.456-.917.286.286,0,0,0,.049-.028.391.391,0,0,1,.12-.058l.04-.011a.287.287,0,0,0,.04-.015,18.835,18.835,0,0,0,2.993-1.748,31.1,31.1,0,0,0,6.612-6.564,47.186,47.186,0,0,0,4.409-6.909.282.282,0,0,0-.128-.385l-13.685-6.605a3.747,3.747,0,0,1-.363-.2.25.25,0,0,1-.206-.136,3.9,3.9,0,0,1-.517-.45.284.284,0,0,0-.06-.047.413.413,0,0,1-.163-.188.3.3,0,0,0-.037-.06,4.518,4.518,0,0,1-.958-2.978,4.224,4.224,0,0,1,3.847-3.938.284.284,0,0,0,.059-.014.4.4,0,0,1,.137-.024.382.382,0,0,1,.061,0,.278.278,0,0,0,.044,0h.018c.109-.007.22-.011.328-.011.149,0,.3.007.445.02a2.971,2.971,0,0,1,.6.151c.086.028.17.055.252.078l14.23,4.088a.282.282,0,0,0,.35-.2c.228-.833.421-1.6.591-2.343,1.727-7.539,1.723-13.528-.012-18.309l-.024-.063a.305.305,0,0,0-.02-.043.363.363,0,0,1-.045-.115.289.289,0,0,0-.014-.052,9.187,9.187,0,0,0-3.942-4.917c-.112-.063-.235-.126-.377-.194a.285.285,0,0,0-.059-.02,8.915,8.915,0,0,0-1.947-.206,12.932,12.932,0,0,0-3.737.6,21.942,21.942,0,0,0-8.688,5.613c-.315.306-.641.636-.968.982a.284.284,0,0,0-.076.219,52.793,52.793,0,0,0-6.327,9.9.236.236,0,0,0-.012.029l-.071.192a.281.281,0,0,0-.071.091,66.924,66.924,0,0,0-3.117,7.491c-2.728,7.844-3.406,14.417-2.072,20.093a16.057,16.057,0,0,0,2.267,5.293.282.282,0,0,0,.021.027,7.875,7.875,0,0,0,6.011,2.908" transform="translate(-1374.552 -56.584)" fill="#fff"/>
      <path d="M1445.571,58.447a12.729,12.729,0,0,0-3.655.585,21.988,21.988,0,0,0-8.574,5.545q-.491.475-.959.973a.19.19,0,0,1-.042.178,52.388,52.388,0,0,0-6.314,9.872c-.025.07-.052.139-.077.209a.205.205,0,0,1-.076.1,66.461,66.461,0,0,0-3.1,7.46c-2.192,6.3-3.6,13.38-2.064,19.936a15.863,15.863,0,0,0,2.226,5.2,7.571,7.571,0,0,0,5.8,2.811q.338,0,.688-.03a10.857,10.857,0,0,0,3.368-.895.667.667,0,0,1,.2-.1l.04-.011a18.525,18.525,0,0,0,2.947-1.722,30.983,30.983,0,0,0,6.551-6.506,46.8,46.8,0,0,0,4.383-6.867l-9.105-4.395-4.58-2.211a4.046,4.046,0,0,1-.39-.219l-.034,0a.188.188,0,0,1-.186-.149,4.17,4.17,0,0,1-.556-.483.7.7,0,0,1-.277-.315,4.792,4.792,0,0,1-1.019-3.166,4.524,4.524,0,0,1,4.093-4.206.688.688,0,0,1,.233-.041.679.679,0,0,1,.105.008c.115-.007.23-.011.346-.011q.234,0,.47.021a5.165,5.165,0,0,1,.906.239l2.287.657,11.943,3.431c.211-.775.41-1.552.588-2.331,1.329-5.8,2.064-12.457,0-18.15l-.023-.06a.633.633,0,0,1-.078-.207,8.981,8.981,0,0,0-3.818-4.772c-.118-.067-.238-.127-.359-.185a8.621,8.621,0,0,0-1.885-.2m0-.565v0a9.19,9.19,0,0,1,2.009.213.561.561,0,0,1,.119.041c.148.07.277.137.395.2a9.459,9.459,0,0,1,4.067,5.061.544.544,0,0,1,.029.1.1.1,0,0,0,.011.024.624.624,0,0,1,.041.086l.008.022.016.042c1.755,4.836,1.762,10.877.022,18.471-.171.747-.366,1.517-.594,2.354a.564.564,0,0,1-.7.394l-11.943-3.431-1.774-.51-.513-.147c-.088-.025-.176-.054-.261-.081a2.794,2.794,0,0,0-.541-.138c-.137-.013-.278-.019-.418-.019-.1,0-.206,0-.31.01h-.036a.563.563,0,0,1-.089-.007h-.017a.124.124,0,0,0-.042.008.558.558,0,0,1-.118.028,4.362,4.362,0,0,0-2.5,1.194,3.651,3.651,0,0,0-1.1,2.476,4.236,4.236,0,0,0,.9,2.789.559.559,0,0,1,.074.12.138.138,0,0,0,.049.061.566.566,0,0,1,.119.094,3.6,3.6,0,0,0,.48.417.571.571,0,0,1,.084.074.554.554,0,0,1,.106.052,3.514,3.514,0,0,0,.336.189l4.581,2.211,5.764,2.782,3.341,1.612a.565.565,0,0,1,.255.771,47.5,47.5,0,0,1-4.436,6.95,31.373,31.373,0,0,1-6.673,6.623,19.129,19.129,0,0,1-3.038,1.774.578.578,0,0,1-.078.029l-.028.008-.012,0a.1.1,0,0,0-.037.018.561.561,0,0,1-.1.055,11.455,11.455,0,0,1-3.544.939c-.247.022-.495.032-.737.032a7.645,7.645,0,0,1-3.519-.843,9.155,9.155,0,0,1-2.706-2.161.579.579,0,0,1-.042-.054,16.348,16.348,0,0,1-2.308-5.387,28.828,28.828,0,0,1-.378-10.264,49.615,49.615,0,0,1,2.458-9.987,67.242,67.242,0,0,1,3.131-7.523.558.558,0,0,1,.08-.12l.02-.053.03-.082a.593.593,0,0,1,.025-.059,53.138,53.138,0,0,1,6.3-9.88.563.563,0,0,1,.148-.306c.328-.348.657-.681.976-.991a22.208,22.208,0,0,1,8.8-5.68,13.208,13.208,0,0,1,3.819-.609" transform="translate(-1371.263 -53.299)" fill="#060706"/>
      <path d="M1071.862,418.619a13.355,13.355,0,0,1,.265,2.52,23.738,23.738,0,0,1-1.8,9,22.382,22.382,0,0,1-4.617,7.389,12.862,12.862,0,0,1-2.289,1.912,73.8,73.8,0,0,1,13.6,1.8,23.535,23.535,0,0,0,3.787-6.794A19.009,19.009,0,0,0,1082.2,426a93.437,93.437,0,0,1-10.333-7.377" transform="translate(-971.748 -385.473)" fill="#ab0a21"/>
      <path d="M962.127,523.378a.713.713,0,0,1-.163-.124q-2.258-1.18-4.452-2.482a21.43,21.43,0,0,1-1.367,7.606,24.819,24.819,0,0,1-3.781,7.153q2.161.561,4.279,1.29c.024.007.048.015.073.025,2.305.911,4.284-.083,5.715-1.721a.545.545,0,0,1,.229-.273,10.43,10.43,0,0,0,1.308-2.123,10.817,10.817,0,0,0,1.049-4.7,5.354,5.354,0,0,0-2.89-4.648" transform="translate(-845.709 -479.538)" fill="#555"/>
      <path d="M1180,756.589c-.162-.359-.336-.711-.511-1.064q-.122.264-.253.525c.26.452.443.952.721,1.4.149.237-.2.5-.349.263-.237-.378-.406-.8-.612-1.2q-.142.265-.291.525.347.592.706,1.176c.146.238-.2.5-.349.263q-.307-.5-.608-1.01c-.089.146-.18.29-.272.434.2.324.377.656.558.989.134.247-.272.408-.4.164s-.276-.5-.42-.75q-.131.194-.266.386a6.711,6.711,0,0,1,.413,1.005c.123.254-.282.415-.4.164-.108-.224-.156-.545-.282-.788-.07.095-.143.188-.214.282a5.711,5.711,0,0,1,.316.774c.081.267-.323.433-.4.164a4.556,4.556,0,0,0-.213-.551c-.091.115-.183.229-.276.342a2.178,2.178,0,0,1,.134.464.218.218,0,0,1-.433.051,1.043,1.043,0,0,0-.028-.131q-.172.2-.349.392a4.623,4.623,0,0,0,2.366,2.281,11.368,11.368,0,0,0,3.639,1.214,10.959,10.959,0,0,0,3.48-.081,4.86,4.86,0,0,0,2.538-1.075c-.318-3.685-.615-7.439.427-11.04a15.891,15.891,0,0,1,1-2.6,17.038,17.038,0,0,1-3.841-.273,20.166,20.166,0,0,0-2.829-.03c.03.016.06.034.091.049.254.12.081.52-.175.4a3.363,3.363,0,0,1-.622-.4,2.018,2.018,0,0,1-.3-.018c.316.332.674.632.971.976.184.214-.166.474-.349.263-.359-.416-.809-.769-1.164-1.192-.015.155-.032.309-.05.464a6.047,6.047,0,0,1,1.193,1.19c.166.227-.182.49-.348.262a5.353,5.353,0,0,0-.91-.945c-.012.085-.024.17-.038.255.138.141.264.333.363.446.259.3.507.612.789.887.2.194-.069.538-.271.342-.243-.236-.461-.5-.684-.756l-.3-.34c-.018.1-.036.2-.055.294a11.919,11.919,0,0,1,1.07,1.547c.131.249-.275.41-.4.164a8.044,8.044,0,0,0-.787-1.15.07.07,0,0,0,0,.009c-.017.071-.036.141-.054.212.335.515.665,1.033.977,1.563.141.24-.206.5-.348.262-.25-.424-.512-.841-.779-1.254-.042.151-.085.3-.132.451a8.993,8.993,0,0,1,.874,1.523c.135.247-.271.408-.4.164-.212-.388-.38-.823-.633-1.193-.025.072-.049.145-.074.217a.227.227,0,0,1,.025.054,9.352,9.352,0,0,0,.786,1.677c.132.249-.273.41-.4.164a14.119,14.119,0,0,1-.642-1.273q-.09.225-.186.447c.232.47.469.936.684,1.414.116.257-.289.419-.4.164" transform="translate(-1087.75 -689.893)" fill="#494949"/>
   </g>
</svg>
